Exact Audio Copy V0.99 prebeta 1 from 25. May 2007

EAC 抓取日志文件从21. 二月 2011, 20:40

郭颂 / 20世纪中华歌坛名人百集珍藏版

使用驱动器  ：PIONEER DVD-RW  DVR-115   Adapter: 0  ID: 0

读取模式     : 保护
使用精确流   : 是
废除音频缓冲 : 是
使用 C2 指针 : 否

组合读/写偏移校正              : 48
读取 Lead-In 和 Lead-Out       : 否
用静音填充抓取中丢失偏移的采样 : 是
去除首尾静音块                 : 否
已用接口                       : Win NT 及 2000 本地 Win32 接口

所用输出格式 : 内部 WAV 函数
样本格式     : 44.100 Hz;16 Bit;立体声
使用压缩偏移 : 48


被抓轨 CD 的 TOC

     音轨 |   开始   |   长度   | 起始扇区 | 结尾扇区 
    --------------------------------------------------
       1  |  0:00.00 |  3:47.47 |       0  |   17071  
       2  |  3:47.47 |  2:09.08 |   17072  |   26754  
       3  |  5:56.55 |  3:32.12 |   26755  |   42666  
       4  |  9:28.67 |  1:53.05 |   42667  |   51146  
       5  | 11:21.72 |  2:20.13 |   51147  |   61659  
       6  | 13:42.10 |  3:04.27 |   61660  |   75486  
       7  | 16:46.37 |  2:24.23 |   75487  |   86309  
       8  | 19:10.60 |  2:09.37 |   86310  |   96021  
       9  | 21:20.22 |  2:55.08 |   96022  |  109154  
      10  | 24:15.30 |  2:46.42 |  109155  |  121646  
      11  | 27:01.72 |  4:02.50 |  121647  |  139846  
      12  | 31:04.47 |  3:05.55 |  139847  |  153776  
      13  | 34:10.27 |  3:55.38 |  153777  |  171439  
      14  | 38:05.65 |  2:31.12 |  171440  |  182776  
      15  | 40:37.02 |  2:53.32 |  182777  |  195783  
      16  | 43:30.34 |  3:30.73 |  195784  |  211606  
      17  | 47:01.32 |  3:54.48 |  211607  |  229204  
      18  | 50:56.05 |  1:45.00 |  229205  |  237079  
      19  | 52:41.05 |  3:05.17 |  237080  |  250971  


范围状态及错误

已选择范围

     文件名 E:\20世纪中华歌坛名人百集珍藏版-郭颂[lwg188原创]\郭颂 - 20世纪中华歌坛名人百集珍藏版.wav

     峰值电平 93.5 %
     范围质量 100.0 %
     复制 CRC 840E29C0
     复制成功

没有错误发生

状态报告结尾
